<?xml version="1.0" encoding="iso-8859-1"?>
<!-- Generator: Adobe Illustrator 16.0.0, SVG Export Plug-In . SVG Version: 6.00 Build 0)  -->
<!DOCTYPE svg PUBLIC "-//W3C//DTD SVG 1.1//EN" "http://www.w3.org/Graphics/SVG/1.1/DTD/svg11.dtd">
<svg version="1.1" id="Capa_1" xmlns="http://www.w3.org/2000/svg" xmlns:xlink="http://www.w3.org/1999/xlink" x="0px" y="0px"
	 width="612px" height="612px" viewBox="0 0 612 612" style="enable-background:new 0 0 612 612;" xml:space="preserve">
<g>
	<g id="_x32__41_">
		<g>
			<path d="M76.5,229.5C34.253,229.5,0,263.753,0,306s34.253,76.5,76.5,76.5S153,348.247,153,306S118.747,229.5,76.5,229.5z
				 M76.5,344.25c-21.133,0-38.25-17.117-38.25-38.25c0-21.114,17.117-38.25,38.25-38.25s38.25,17.117,38.25,38.25
				C114.75,327.133,97.633,344.25,76.5,344.25z M76.5,420.75c-42.247,0-76.5,34.253-76.5,76.5s34.253,76.5,76.5,76.5
				s76.5-34.253,76.5-76.5S118.747,420.75,76.5,420.75z M76.5,535.5c-21.133,0-38.25-17.136-38.25-38.25S55.367,459,76.5,459
				s38.25,17.117,38.25,38.25S97.633,535.5,76.5,535.5z M535.5,191.25c42.247,0,76.5-34.253,76.5-76.5s-34.253-76.5-76.5-76.5
				S459,72.503,459,114.75S493.253,191.25,535.5,191.25z M535.5,76.5c21.133,0,38.25,17.136,38.25,38.25
				c0,21.133-17.117,38.25-38.25,38.25s-38.25-17.117-38.25-38.25C497.25,93.636,514.367,76.5,535.5,76.5z M535.5,420.75
				c-42.247,0-76.5,34.253-76.5,76.5s34.253,76.5,76.5,76.5s76.5-34.253,76.5-76.5S577.747,420.75,535.5,420.75z M535.5,535.5
				c-21.133,0-38.25-17.136-38.25-38.25S514.367,459,535.5,459s38.25,17.117,38.25,38.25S556.633,535.5,535.5,535.5z M76.5,38.25
				C34.253,38.25,0,72.503,0,114.75s34.253,76.5,76.5,76.5s76.5-34.253,76.5-76.5S118.747,38.25,76.5,38.25z M76.5,153
				c-21.133,0-38.25-17.117-38.25-38.25c0-21.114,17.117-38.25,38.25-38.25s38.25,17.136,38.25,38.25
				C114.75,135.883,97.633,153,76.5,153z M535.5,229.5c-42.247,0-76.5,34.253-76.5,76.5s34.253,76.5,76.5,76.5S612,348.247,612,306
				S577.747,229.5,535.5,229.5z M535.5,344.25c-21.133,0-38.25-17.117-38.25-38.25c0-21.114,17.117-38.25,38.25-38.25
				s38.25,17.117,38.25,38.25C573.75,327.133,556.633,344.25,535.5,344.25z M306,38.25c-42.247,0-76.5,34.253-76.5,76.5
				s34.253,76.5,76.5,76.5s76.5-34.253,76.5-76.5S348.247,38.25,306,38.25z M306,153c-21.133,0-38.25-17.117-38.25-38.25
				c0-21.114,17.117-38.25,38.25-38.25c21.133,0,38.25,17.136,38.25,38.25C344.25,135.883,327.133,153,306,153z M306,420.75
				c-42.247,0-76.5,34.253-76.5,76.5s34.253,76.5,76.5,76.5s76.5-34.253,76.5-76.5S348.247,420.75,306,420.75z M306,535.5
				c-21.133,0-38.25-17.136-38.25-38.25S284.867,459,306,459c21.133,0,38.25,17.117,38.25,38.25S327.133,535.5,306,535.5z
				 M306,229.5c-42.247,0-76.5,34.253-76.5,76.5s34.253,76.5,76.5,76.5s76.5-34.253,76.5-76.5S348.247,229.5,306,229.5z M306,344.25
				c-21.133,0-38.25-17.117-38.25-38.25c0-21.114,17.117-38.25,38.25-38.25c21.133,0,38.25,17.117,38.25,38.25
				C344.25,327.133,327.133,344.25,306,344.25z"/>
		</g>
	</g>
</g>
<g>
</g>
<g>
</g>
<g>
</g>
<g>
</g>
<g>
</g>
<g>
</g>
<g>
</g>
<g>
</g>
<g>
</g>
<g>
</g>
<g>
</g>
<g>
</g>
<g>
</g>
<g>
</g>
<g>
</g>
</svg>
